<svg clip-rule="evenodd" fill-rule="evenodd" stroke-linejoin="round" stroke-miterlimit="2" viewBox="-0.077 0 257.05199999999996 299.401" xmlns="http://www.w3.org/2000/svg" width="2147" height="2500"><path d="M128.052 0c70.485 0 127.71 57.214 127.71 127.686s-57.225 127.686-127.71 127.686S.342 198.158.342 127.686 57.567 0 128.052 0zm-.12 5.014C62.915 5.014 10.13 57.746 10.13 122.697s52.786 117.682 117.803 117.682 117.802-52.731 117.802-117.682S192.95 5.014 127.932 5.014z" fill="gray"/><path d="M70.65 139.142l48.982-101.347-58.651 75.92z" fill="#969696"/><path d="M88.957 187.652L54.218 96.047l1.394 75.323z" fill="#9a9a9a"/><path d="M126.206 205.55l-70.794-34.3 46.238 49.341z" fill="gray"/><path d="M213.218 152.747l-9.311 16.712-48.225 50.852-54.193.238z" fill="#919191"/><path d="M187.434 73.248l7.401 28.648 7.926 57.107-39.115 24.007z" fill="gray"/><path d="M112.709 14.996l7.162 21.009 55.945 90.722 7.878-36.449z" fill="#b1b1b1"/><g fill="#7e848d" fill-rule="nonzero"><path d="M16.029 294.407v4.645H2.44c-2.486 0-2.44-2.083-2.44-2.083v-31.893s-.077-2.114 3.602-2.114h12.427v4.666H6.157c-1.331 0-1.242 1.397-1.242 1.397v23.702s-.02 1.68 1.637 1.68zM55.163 294.407v4.645H41.574c-2.486 0-2.44-2.083-2.44-2.083v-31.893s-.077-2.114 3.602-2.114h12.427v4.666h-9.872c-1.331 0-1.242 1.397-1.242 1.397v23.702s-.02 1.68 1.637 1.68zM131.747 294.407v4.645h-13.589c-2.486 0-2.44-2.083-2.44-2.083v-31.893s-.077-2.114 3.602-2.114h12.427v4.666h-9.872c-1.331 0-1.243 1.397-1.243 1.397v23.702s-.02 1.68 1.638 1.68zM134.926 299.124v-35.792h13.735c2.747 0 4.161 2.83 4.161 2.83v9.006c0 2.336-3.915 3.01-3.915 3.01l3.975 4.143-.1 11.296v5.507l-3.933.049.02-16.98-1-1.077h-8.822v18.008zm4.12-22.026h7.779c.983 0 1.017-.981 1.017-.981l-.025-7.885s.004-1.084-1.012-1.084h-7.758zM75.964 296.799s.041 2.193-1.963 2.193h-13.99c-2.03 0-2.141-2.193-2.141-2.193v-31.937s-.141-1.624 1.964-1.624h14.192c1.803 0 1.938 1.825 1.938 1.825zM62.046 268.23v25.414s-.38 1.393 1.392 1.393h6.96c1.618 0 1.391-1.393 1.391-1.393V268.28s.15-1.393-1.392-1.393h-6.96c-1.541 0-1.391 1.344-1.391 1.344zM236.06 296.799s.04 2.193-1.964 2.193h-13.99c-2.03 0-2.141-2.193-2.141-2.193v-31.937s-.141-1.624 1.964-1.624h14.192c1.803 0 1.938 1.825 1.938 1.825zM222.14 268.23v25.414s-.38 1.393 1.392 1.393h6.96c1.618 0 1.391-1.393 1.391-1.393V268.28s.15-1.393-1.392-1.393h-6.96c-1.541 0-1.39 1.344-1.39 1.344zM37.017 296.799s.041 2.193-1.963 2.193h-13.99c-2.03 0-2.141-2.193-2.141-2.193v-31.937s-.141-1.624 1.964-1.624H35.08c1.803 0 1.938 1.825 1.938 1.825zM23.1 268.23v25.414s-.38 1.393 1.392 1.393h6.96c1.618 0 1.391-1.393 1.391-1.393V268.28s.15-1.393-1.392-1.393h-6.96c-1.541 0-1.391 1.344-1.391 1.344zM84.411 267.618c-1.337 0-1.275.937-1.275.937l.04 6.815s.034.894 1.278.894H92.7c3.913 0 4.123 1.688 4.123 1.688v18.844s.002 1.96-4.123 1.96H78.957v-4.755h12.369c1.554 0 1.526-.978 1.526-.978l-.152-12.16s-.068-.993-1.374-.993H83.08c-2.749 0-4.123-.03-4.123-5.496v-5.465c0-5.466 1.374-5.68 4.123-5.68h13.743l-.044 4.39z"/><path d="M134.926 299.124v-35.792h13.735c2.747 0 4.161 2.83 4.161 2.83v9.006c0 2.336-3.915 3.01-3.915 3.01l3.975 4.143-.1 11.296v5.507l-3.933.049.02-16.98-1-1.077h-8.822v18.008zm4.12-22.026h7.779c.983 0 1.017-.981 1.017-.981l-.025-7.885s.004-1.084-1.012-1.084h-7.758zM176.827 299.124V266.19s.07-2.772 3.024-2.857c2.23-.064 10.057 0 10.057 0 2.616 0 3.963 2.83 3.963 2.83v9.006c0 2.336.057 7.153.057 7.153l-.095 11.296v5.507l-3.982.049.048-18.057h-9.147v18.008zm3.925-22.026l8.38.01-.028-8.876s.005-1.084-.963-1.084h-6.28c-1.11 0-1.11 1.1-1.11 1.1zM239.018 299.124v-35.792h13.735c2.747 0 4.162 2.83 4.162 2.83v9.006c0 2.336-3.915 3.01-3.915 3.01l3.975 4.143-.1 11.296v5.507l-3.934.049.02-16.98-1-1.077h-8.822v18.008zm4.121-22.026h7.778c.983 0 1.017-.981 1.017-.981l-.025-7.885s.005-1.084-1.011-1.084h-7.759zM155.908 299.401v-36.734h18.043v4.566h-13.896v9.946h8.678v4.028h-8.678v14.09h13.82v4.104zM203.787 299.084v-31.962h-6.908v-3.99h17.961v3.99h-6.908v31.962z"/></g></svg>